<?xml version="1.0" encoding="UTF-8" standalone="no"?> <svg xmlns:dc="http://purl.org/dc/elements/1.1/" xmlns:cc="http://creativecommons.org/ns#" xmlns:rdf="http://www.w3.org/1999/02/22-rdf-syntax-ns#" xmlns:svg="http://www.w3.org/2000/svg" xmlns="http://www.w3.org/2000/svg" xmlns:sodipodi="http://sodipodi.sourceforge.net/DTD/sodipodi-0.dtd" xmlns:inkscape="http://www.inkscape.org/namespaces/inkscape" width="197.67754mm" height="65mm" viewBox="0 0 197.67754 65" version="1.1" id="svg8" sodipodi:docname="SUPERA.svg" inkscape:version="1.0.2-2 (e86c870879, 2021-01-15)"><defs id="defs2"><clipPath id="clipPath30"><path d="M 0,110.048 H 324.402 V 0 H 0 Z" id="path28"></path></clipPath></defs><metadata id="metadata5"></metadata><g inkscape:label="Layer 1" inkscape:groupmode="layer" id="layer1"><g id="g18" inkscape:label="nova logo supera" transform="matrix(0.65007669,0,0,-0.65007669,-6.3934392,67.414643)" inkscape:export-xdpi="300" inkscape:export-ydpi="300"><text transform="matrix(1,0,0,-1,35.7354,7.9053)" style="font-variant:normal;font-weight:300;font-stretch:normal;font-size:19.8221px;font-family:Helvetica-Light;-inkscape-font-specification:Helvetica-Light;writing-mode:lr-tb;fill:#1e1e1e;fill-opacity:1;fill-rule:nonzero;stroke:none" id="text22"><tspan x="0 4.71766 18.236332 32.865044 42.718609 55.147064 68.665733 81.094193 95.7229 100.44056 111.75898 127.47791 132.19557 142.42377 153.74219 167.26086 180.77954 195.40825 205.63644 220.26515 234.89386 239.61153" y="0" sodipodi:role="line" id="tspan20">INOVAÇÃO EM TECNOLOGIA</tspan></text><g id="g24"><g id="g26" clip-path="url(#clipPath30)"><g id="g32" transform="translate(221.3559,34.7217)"><path d="m 0,0 v 40.63 c 0,5.435 4.427,9.856 9.866,9.856 H 38.52 c 1.859,0 3.373,-1.511 3.373,-3.368 0,-1.859 -1.514,-3.37 -3.373,-3.37 H 14.902 c -3.945,0 -7.192,-3.21 -7.239,-7.156 L 7.663,0 Z" style="fill:#1e1e1e;fill-opacity:1;fill-rule:nonzero;stroke:none" id="path34"></path></g><g id="g36" transform="translate(75.4545,34.7217)"><path d="m 0,0 c -7.069,0 -12.606,5.369 -12.606,12.223 v 34.232 c 0,2.223 1.808,4.031 4.031,4.031 2.367,0 3.425,-2.025 3.425,-4.031 V 11.771 c 0,-3.359 2.129,-5.209 5.993,-5.209 h 20.679 c 3.861,0 5.989,1.85 5.989,5.209 v 42.543 h 7.46 V 0 Z" style="fill:#f37020;fill-opacity:1;fill-rule:nonzero;stroke:none" id="path38"></path></g><g id="g40" transform="translate(115.5888,34.7217)"><path d="m 0,0 v 50.486 h 34.848 c 7.37,0 12.516,-5.935 12.516,-14.435 0,-8.444 -6.301,-14.572 -14.983,-14.572 H 19.929 c -2.29,0 -3.889,1.409 -3.889,3.426 0,2.018 1.599,3.428 3.889,3.428 h 12.12 c 3.837,0 7.331,3.679 7.331,7.718 0,4.039 -3.426,7.582 -7.331,7.582 H 14.005 c -4.007,0 -6.213,-1.919 -6.213,-5.403 L 7.792,0 Z" style="fill:#f37020;fill-opacity:1;fill-rule:nonzero;stroke:none" id="path42"></path></g><g id="g44" transform="translate(183.1713,34.7197)"><path d="m 0,0 c -8.387,0 -15.209,6.825 -15.209,15.215 v 20.061 c 0,8.387 6.822,15.21 15.209,15.21 h 20.674 c 6.6,0 12.178,-6.391 12.178,-13.956 0,-7.615 -6.728,-14.296 -14.395,-14.296 H 4.059 c -1.935,0 -3.452,1.486 -3.452,3.383 0,1.878 1.517,3.35 3.452,3.35 h 14.709 c 3.643,0 6.469,3.996 6.469,7.434 0,3.498 -2.826,7.563 -6.469,7.563 H 1.614 c -5.079,0 -9.211,-4.092 -9.211,-9.124 V 16.021 c 0,-5.079 4.132,-9.209 9.211,-9.209 H 29.15 c 1.881,0 3.411,-1.527 3.411,-3.402 C 32.561,1.529 31.031,0 29.15,0 Z" style="fill:#1e1e1e;fill-opacity:1;fill-rule:nonzero;stroke:none" id="path46"></path></g><g id="g48" transform="translate(306.3383,34.7197)"><path d="m 0,0 v 36.312 c -0.051,4.065 -2.494,6.912 -6.373,7.434 l -0.518,0.07 c 0,0 -14.26,-0.109 -15.734,-0.107 -5.413,0 -9.817,-4.406 -9.817,-9.82 V 16.567 c 0,-5.415 4.404,-9.821 9.817,-9.821 h 10.718 c 2.12,0 3.659,-1.418 3.659,-3.371 0,-1.944 -1.539,-3.356 -3.659,-3.356 h -11.916 c -8.975,0 -16.277,7.304 -16.277,16.282 v 17.868 c 0,8.977 7.302,16.28 16.277,16.28 l 20.016,0.039 C 2.472,50.488 7.58,45.385 7.58,39.111 V 0 Z" style="fill:#1e1e1e;fill-opacity:1;fill-rule:nonzero;stroke:none" id="path50"></path></g><g id="g52" transform="translate(103.1313,95.8296)"><path d="M 0,0 7.294,7.873 V -1.672 H 0 Z" style="fill:#1e1e1e;fill-opacity:1;fill-rule:nonzero;stroke:none" id="path54"></path></g><g id="g56" transform="translate(57.8959,48.6758)"><path d="m 0,0 c 0,0.154 -0.02,0.306 -0.025,0.459 0,0.031 0.004,0.062 0.004,0.093 l -0.01,0.01 C -0.354,7.94 -6.917,14.295 -14.394,14.295 h -4.791 c -0.028,10e-4 -0.055,0.008 -0.083,0.008 h -14.709 c -3.644,0 -6.47,3.997 -6.47,7.435 0,2.778 1.759,6.035 4.306,7.26 1.52,0.488 3.217,0.72 4.904,0.72 h 27.536 c 1.881,0 3.41,1.526 3.41,3.402 0,1.88 -1.529,3.41 -3.41,3.41 h -29.151 c -1.871,0 -3.659,-0.351 -5.315,-0.973 -5.553,-1.266 -9.894,-7.018 -9.894,-13.69 0,-7.616 6.727,-14.297 14.394,-14.297 h 4.791 c 0.029,0 0.055,-0.008 0.084,-0.008 h 14.709 c 3.643,0 6.469,-3.996 6.469,-7.434 0,-3.353 -2.941,-7.957 -6.722,-7.957 -0.998,-0.028 -1.504,-0.024 -2.488,-0.024 H -44.36 c -1.88,0 -3.41,-1.525 -3.41,-3.401 0,-1.881 1.53,-3.41 3.41,-3.41 h 29.151 c 1.86,0 3.635,0.352 5.283,0.967 C -4.358,-12.446 0,-6.687 0,0" style="fill:#1e1e1e;fill-opacity:1;fill-rule:nonzero;stroke:none" id="path58"></path></g></g></g></g></g></svg> 